<svg xmlns="http://www.w3.org/2000/svg" width="28" height="28" viewBox="0 0 28 28">
  <path fill="#15A0B2" d="M16.2551493,27.1573284 C16.2832248,24.2370649 16.9269956,21.6292454 18.1249364,19.6026001 C19.4225627,17.4079499 21.3323783,15.9809799 23.7930819,15.3669396 L23.9892655,15.3179842 L24.5445725,17.6516811 L27.889958,12.1348323 L22.4176712,8.7132143 L22.9757803,11.0565433 L22.7829736,11.1039499 C19.1660946,11.993254 16.2531133,14.1601263 14.3520967,17.3756027 C12.75901,20.07102 11.9023556,23.449254 11.8726389,27.1573284 L16.2551493,27.1573284 Z M0.273307267,12.1351028 L3.61864175,17.6518674 L4.17144795,15.327217 L4.36823073,15.3771348 C6.67083298,15.961235 8.48760996,17.2574745 9.76926729,19.2304971 C10.2131871,17.9517508 10.7652097,16.7509477 11.4194866,15.6438661 C11.5683858,15.3921343 11.7272525,15.139036 11.8975907,14.8812026 C10.1470467,13.0296927 7.93572469,11.7493805 5.37765654,11.1138393 L5.18544197,11.0660844 L5.74562659,8.71346438 L0.273307267,12.1351028 Z M9.46445906,4.80875236 L11.8717302,4.80875236 L11.8717302,10.3690664 C12.654301,10.9184135 13.3863084,11.5347218 14.063483,12.2147892 C14.7433591,11.5322138 15.4748747,10.9156569 16.2540816,10.3690203 L16.2540816,4.80875236 L18.6581794,4.80875236 L14.0618085,0.280732835 L9.46445906,4.80875236 Z"/>
</svg>
