<svg xmlns="http://www.w3.org/2000/svg" xmlns:xlink="http://www.w3.org/1999/xlink" width="32" height="33" viewBox="0 0 32 33">
  <defs>
    <path id="user1-a" d="M0,15.9999292 C0,24.8364211 7.16335913,32 15.9999292,32 C24.8366409,32 32,24.8364211 32,15.9999292 C32,7.16357892 24.8366409,0 15.9999292,0 C7.16335913,0 0,7.16357892 0,15.9999292 Z"/>
    <path id="user1-c" d="M0.0974096916,16 C0.0974096916,24.836531 7.22918062,32 16.0267841,32 C24.8245286,32 31.9562996,24.836531 31.9562996,16 C31.9562996,7.16346903 24.8245286,0 16.0267841,0 C7.22918062,0 0.0974096916,7.16346903 0.0974096916,16 Z"/>
  </defs>
  <g fill="none" fill-rule="evenodd">
    <mask id="user1-b" fill="#fff">
      <use xlink:href="#user1-a"/>
    </mask>
    <polygon fill="#E8E8E8" points="-12 41 36 41 36 -7 -12 -7" mask="url(#user1-b)"/>
    <circle cx="16" cy="39" r="19" fill="#151F56" mask="url(#user1-b)"/>
    <circle cx="15.5" cy="12.5" r="6.5" fill="#151F56" mask="url(#user1-b)"/>
    <g transform="translate(0 1)">
      <mask id="user1-d" fill="#fff">
        <use xlink:href="#user1-c"/>
      </mask>
      <polygon fill="#FF1D29" points="-12.264 41.304 35.625 41.304 35.625 -6.796 -12.264 -6.796" mask="url(#user1-d)"/>
      <path fill="#3A46DD" d="M16.0268687,26.9693451 C16.0268687,37.7976637 24.766393,46.5758584 35.5470097,46.5758584 C46.3276264,46.5758584 55.0671507,37.7976637 55.0671507,26.9693451 C55.0671507,16.1410265 46.3276264,7.36283186 35.5470097,7.36283186 C24.766393,7.36283186 16.0268687,16.1410265 16.0268687,26.9693451" mask="url(#user1-d)"/>
      <polygon fill="#13B0E5" points="-12.264 11.327 31.102 11.327 31.102 -6.796 -12.264 -6.796" mask="url(#user1-d)"/>
    </g>
  </g>
</svg>
