<svg xmlns="http://www.w3.org/2000/svg" width="30" height="25" viewBox="0 0 30 25">
  <path fill="#DD6E42" d="M0.959701041,11.7904415 L3.29589651,11.7904415 L3.29589651,12.4997514 C3.29589651,19.2266815 8.79225723,24.7 15.5483871,24.7 C18.8130495,24.7 21.8621921,23.4482668 24.1709698,21.1674636 L21.0580109,18.1872697 C19.5718426,19.6180315 17.6257057,20.4031947 15.5483871,20.4031947 C11.1729323,20.4031947 7.6131669,16.8582446 7.6131669,12.4997514 L7.6131669,11.7904415 L9.94991706,11.7904415 L5.45480905,7.37814619 L0.959701041,11.7904415 Z M27.800323,13.2095585 L27.800323,12.4996962 C27.800323,5.77312582 22.3043235,0.3 15.5483871,0.3 C12.2837247,0.3 9.23458212,1.55173315 6.92580444,3.83253641 L10.0386907,6.81266079 C11.524087,5.3817487 13.4701252,4.59680528 15.5483871,4.59680528 C19.9232872,4.59680528 23.4830526,8.14175539 23.4830526,12.4996962 L23.4830526,13.2095585 L23.1830526,13.2095585 L21.1468008,13.2095585 L25.6419651,17.622384 L30.1371295,13.2095585 L27.800323,13.2095585 Z" transform="translate(-1)"/>
</svg>
